<svg width="15" height="15" viewBox="0 0 15 15" fill="none" xmlns="http://www.w3.org/2000/svg">
<path d="M9 14.6667C8.74867 14.6667 8.51667 14.5247 8.40333 14.298L6.42467 10.3407C6.316 10.1233 6.33467 9.86334 6.47267 9.66268L9.66667 5.33334L5.33667 8.52668C5.136 8.66534 4.876 8.68268 4.65867 8.57468L0.702001 6.59668C0.464668 6.47734 0.320001 6.22868 0.334668 5.96334C0.348668 5.69801 0.520001 5.46601 0.769334 5.37468L13.436 0.708009C13.6793 0.619342 13.9533 0.677342 14.138 0.862009C14.322 1.04534 14.382 1.32001 14.292 1.56401L9.62533 14.2307C9.53333 14.48 9.302 14.6513 9.03667 14.6653C9.02467 14.666 9.012 14.6667 9 14.6667Z" fill="white"/>
</svg>
